# xmcd
#
# Track frame offsets:
# 150
# 40147
# 69322
# 90052
# 157780
# 180185
# 204892
# 250842
#
# Disc length: 3805 seconds
#
#
# Revision: 0
# Processed by: cddbd v1.5.2PL0 Copyright (c) Steve Scherf et al.
# Submitted via: FreeRIP 2.96 
#
DISCID=4a0edb08
DTITLE=The Derek Trucks Band - Live at Georgia Theatre cd1
DYEAR=2003
DGENRE=Blues
TTITLE0=Kam-ma-lay
TTITLE1=Gonna Move
TTITLE2=Volunteered Slavely
TTITLE3=Sahib Teri Bandi/Maki Madni
TTITLE4=Leaving Trunk
TTITLE5=I Wish I Knew
TTITLE6=Angola
TTITLE7=Feel So Bad
EXTD=
EXTT0=
EXTT1=
EXTT2=
EXTT3=
EXTT4=
EXTT5=
EXTT6=
EXTT7=
PLAYORDER=
